Coordinates
version=1
nRows=13
nColumns=34
inDegrees=yes

Units are S.I. units (second, meters, Newtons, ...)
If the header above contains a line with 'inDegrees', this indicates whether rotational values are in degrees (yes) or radians (no).

endheader
time	pelvis_tilt	pelvis_list	pelvis_rotation	pelvis_tx	pelvis_ty	pelvis_tz	hip_flexion_r	hip_adduction_r	hip_rotation_r	knee_angle_r	ankle_angle_r	subtalar_angle_r	mtp_angle_r	hip_flexion_l	hip_adduction_l	hip_rotation_l	knee_angle_l	ankle_angle_l	subtalar_angle_l	mtp_angle_l	lumbar_extension	lumbar_bending	lumbar_rotation	arm_flex_r	arm_add_r	arm_rot_r	elbow_flex_r	pro_sup_r	arm_flex_l	arm_add_l	arm_rot_l	elbow_flex_l	pro_sup_l
      3.78000000	      0.32919268	      1.89980601	      7.27718806	     -0.08267819	      0.89848425	     -0.22975693	     24.76710633	     -1.08237168	     -8.82695820	     -8.77166304	      1.52363011	     -1.22613584	     10.42700241	    -19.11746965	      1.30500956	      2.11972302	    -13.02261757	      9.78524500	     10.52821954	     10.42745468	     -6.07540077	     -0.22143366	     -9.37274668	    -10.66588473	    -14.31448569	      6.09856404	     13.88054867	     90.00000000	      0.17639581	    -17.26630495	     15.99708728	     30.62797028	     90.00000000
      3.79000000	      0.25508938	      1.65640228	      7.27450546	     -0.06700456	      0.89676980	     -0.22896886	     24.65491125	     -0.57772306	     -7.94197996	    -10.22932879	      1.22481805	     -3.24686251	     10.12610947	    -19.13412631	      0.79015338	      1.47474345	    -14.47787228	      8.56310564	     11.74590608	     12.73623999	     -5.56414230	      0.06525431	     -9.34874030	    -10.72976802	    -14.38683947	      7.07442851	     13.21000575	     90.00000000	     -0.20770469	    -17.05048893	     16.26769979	     29.83483980	     90.00000000
      3.80000000	      0.51329140	      1.19836654	      7.52152764	     -0.05129672	      0.89590638	     -0.22844378	     24.13483670	      0.08510517	     -8.20567680	    -11.07267563	     -1.99543103	     -5.74966394	      9.43303503	    -19.39365566	     -0.05159822	      1.15364959	    -15.97781172	      7.05961737	     12.10928018	     14.09281651	     -5.45130660	      0.65501128	     -9.53224533	    -10.96595589	    -14.44409585	      7.30694834	     13.25893553	     90.00000000	     -0.68518369	    -16.80423234	     16.16180719	     29.34612309	     90.00000000
      3.81000000	      0.61345187	      0.46161212	      7.67331662	     -0.03555850	      0.89515678	     -0.22772395	     23.53611985	      1.00101569	     -8.08803294	    -10.96175458	     -5.11055997	     -7.68310721	      8.81205419	    -19.31417398	     -1.15252977	      0.64750983	    -17.64965783	      5.29721458	     12.64053540	     15.18567490	     -5.06307696	      1.54593036	     -9.56233441	    -11.18469294	    -14.59051103	      7.33252866	     13.22402111	     90.00000000	     -1.11996657	    -16.48029765	     16.10238981	     28.65867885	     90.00000000
      3.82000000	      0.59674876	     -0.21281380	      7.50959855	     -0.02038099	      0.89441708	     -0.22654810	     23.48720068	      1.91401573	     -7.32698037	    -11.82130244	     -8.05425965	     -9.59799432	     12.42610985	    -18.91903915	     -2.03520804	     -0.15558555	    -19.41537288	      1.43325622	     12.21878991	     32.11896885	     -4.66530817	      2.33208752	     -9.15338675	    -11.38828517	    -14.70202550	      7.63943424	     13.25484406	     90.00000000	     -1.37476416	    -16.16110832	     16.37227475	     27.90235093	     90.00000000
      3.83000000	      0.62668955	     -1.05301257	      7.37040110	     -0.00535964	      0.89417977	     -0.22551062	     23.91041653	      2.89841261	     -6.88831531	    -14.16248925	     -9.02637301	     -9.54299165	     12.20114252	    -18.32244458	     -3.09756687	     -0.73965237	    -21.65339155	     -1.05557408	     12.18283381	     32.16407465	     -4.33075690	      3.34964640	     -8.83914417	    -11.50761405	    -14.88762244	      7.54091152	     13.39282744	     90.00000000	     -1.75221161	    -15.76792352	     16.20229999	     27.31996982	     90.00000000
      3.84000000	      0.63261817	     -1.84826487	      7.12757680	      0.00944049	      0.89397518	     -0.22432383	     24.42523664	      3.89380639	     -6.42264920	    -16.51349772	     -9.33207138	     -9.62203461	     12.06126181	    -17.46996269	     -4.09580991	     -1.42333961	    -24.21425119	     -3.76399189	     11.91682749	     32.36362768	     -4.04959505	      4.28196843	     -8.41410600	    -11.55972785	    -15.07517633	      7.49651857	     13.51470491	     90.00000000	     -2.13300231	    -15.42760128	     16.07823735	     26.85525941	     90.00000000
      3.85000000	      0.30399264	     -2.52419820	      6.75382853	      0.02386334	      0.89350137	     -0.22283814	     25.00638646	      4.88467792	     -5.39034626	    -18.25834424	     -9.15394991	    -10.00838599	     10.08174109	    -16.09434916	     -4.88779728	     -2.07393417	    -26.69145251	     -8.72048116	     10.59825345	     49.31233761	     -3.41495722	      5.02299411	     -7.93844392	    -11.31616168	    -15.22142000	      8.98379495	     12.84890610	     90.00000000	     -2.37134250	    -15.05408849	     16.39393332	     25.67514787	     90.00000000
      3.86000000	      0.40434971	     -3.25127562	      6.46242560	      0.03823383	      0.89364958	     -0.22150085	     24.94577762	      5.92064870	     -5.12127810	    -19.82662225	     -8.29990798	    -10.33638697	     10.20542110	    -15.04688581	     -5.82219308	     -2.38938424	    -29.50226132	    -12.12240329	     10.03498459	     49.23389232	     -3.33855683	      5.87266149	     -7.55238956	    -11.25033563	    -15.41523920	      8.80266563	     13.16588464	     90.00000000	     -2.86029940	    -14.82828786	     16.20152032	     25.44492159	     90.00000000
      3.87000000	      0.40146330	     -3.90588245	      6.13225911	      0.05246093	      0.89387970	     -0.21995750	     24.78525351	      6.94654332	     -4.72827970	    -21.07583376	     -7.40187082	    -10.45256562	     10.25407826	    -13.78332601	     -6.65765709	     -2.48820163	    -32.41098215	    -15.52228783	      9.44270098	     49.05347753	     -3.16778285	      6.58739394	     -7.10172376	    -11.09683986	    -15.54791309	      8.67062238	     13.33249575	     90.00000000	     -3.27825585	    -14.55813313	     15.95329958	     24.99372444	     90.00000000
      3.88000000	      0.37084141	     -4.42515752	      5.88741191	      0.06624882	      0.89435009	     -0.21871263	     24.41758276	      7.78494002	     -4.36708217	    -21.90600226	     -6.46310488	    -10.66831657	     10.24627663	    -12.29230224	     -7.29201298	     -2.30143790	    -35.51964613	    -18.66952514	      8.45236764	     48.67505431	     -3.05109939	      7.17261592	     -6.75477524	    -10.87666746	    -15.68383568	      8.56965112	     13.58381362	     90.00000000	     -3.68122363	    -14.35219691	     15.75766154	     24.56991055	     90.00000000
      3.89000000	      0.37295553	     -5.11806586	      5.71290578	      0.07981925	      0.89516224	     -0.21766985	     23.73499509	      8.73895147	     -4.26460922	    -22.23782642	     -5.40159927	    -10.71567492	     10.24916260	    -10.62260991	     -8.06133293	     -1.96918142	    -38.72112381	    -21.84271557	      6.73869503	     47.94470134	     -2.98058946	      7.96495408	     -6.46845620	    -10.57616859	    -15.87453494	      8.51829027	     13.85457473	     90.00000000	     -4.00955634	    -14.06796850	     15.65094730	     24.04631536	     90.00000000
      3.90000000	      0.52913589	     -5.86828643	      5.75092277	      0.09296693	      0.89651691	     -0.21689159	     22.77492332	      9.67694754	     -4.37976703	    -22.32310142	     -4.53051783	    -10.40437492	     10.14198249	     -8.85691100	     -8.88948823	     -1.44408832	    -41.99113891	    -24.81093768	      4.62038977	     46.66274457	     -3.10989612	      8.83912397	     -6.29237697	    -10.25669660	    -16.03143596	      8.49132371	     14.23750773	     90.00000000	     -4.17195038	    -13.79771967	     15.60746300	     23.50599185	     90.00000000
